<?xml version="1.0" standalone="no"?><!-- Generator: Gravit.io --><svg xmlns="http://www.w3.org/2000/svg" xmlns:xlink="http://www.w3.org/1999/xlink" style="isolation:isolate" viewBox="0 0 14 14" width="14px" height="14px"><defs><clipPath id="_clipPath_5qosKF0oqTnxel67scLWywgLs5VNbXWz"><rect width="14" height="14"/></clipPath></defs><g clip-path="url(#_clipPath_5qosKF0oqTnxel67scLWywgLs5VNbXWz)"><clipPath id="_clipPath_G7sXToQSB9Lb2AbQjLYXgq1NGlbuJpaO"><rect x="0" y="0" width="14" height="14" transform="matrix(1,0,0,1,0,0)" fill="rgb(255,255,255)"/></clipPath><g clip-path="url(#_clipPath_G7sXToQSB9Lb2AbQjLYXgq1NGlbuJpaO)"><g><path d=" M 8.999 2.493 L 11 5.995 L 13.001 9.497 C 14.104 11.427 13.195 12.995 10.971 12.995 L 7 12.995 L 3.029 12.995 C 0.805 12.995 -0.104 11.427 0.999 9.497 L 3 5.995 L 5.001 2.493 C 6.104 0.562 7.896 0.562 8.999 2.493 Z " fill="rgb(3,198,0)"/><path d=" M 9.03 3.48 L 10.5 6 L 11.97 8.52 C 13.09 10.441 12.195 12 9.971 12 L 7 12 L 4.029 12 C 1.805 12 0.91 10.441 2.03 8.52 L 3.5 6 L 4.97 3.48 C 6.09 1.559 7.91 1.559 9.03 3.48 Z " fill="rgb(50,142,0)"/></g></g></g></svg>